<mxfile host="drawio-plugin" modified="2021-04-18T23:37:29.700Z" agent="5.0 (Windows NT 6.2; Win64; x64) AppleWebKit/537.36 (KHTML, like Gecko) Chrome/87.0.4280.141 Safari/537.36" etag="i8GqnDfs9ZoQ_7xdurah" version="13.7.9" type="embed"><diagram id="1ukJx1I8JOqkx3wJSo4l" name="Page-1"><mxGraphModel dx="847" dy="431" grid="1" gridSize="10" guides="1" tooltips="1" connect="1" arrows="1" fold="1" page="1" pageScale="1" pageWidth="850" pageHeight="1100" math="0" shadow="0"><root><mxCell id="0"/><mxCell id="1" parent="0"/><mxCell id="27" style="edgeStyle=orthogonalEdgeStyle;rounded=0;orthogonalLoop=1;jettySize=auto;html=1;entryX=0.55;entryY=0.011;entryDx=0;entryDy=0;entryPerimeter=0;" edge="1" parent="1" source="1knooG6uAV0iX2cmZe7T-1" target="14"><mxGeometry relative="1" as="geometry"/></mxCell><object label="" id="1knooG6uAV0iX2cmZe7T-1"><mxCell style="whiteSpace=wrap;html=1;aspect=fixed;" parent="1" vertex="1"><mxGeometry x="40" y="60" width="210" height="210" as="geometry"/></mxCell></object><mxCell id="1knooG6uAV0iX2cmZe7T-2" value="User" style="text;html=1;strokeColor=none;fillColor=none;align=center;verticalAlign=middle;whiteSpace=wrap;rounded=0;" parent="1" vertex="1"><mxGeometry x="40" y="40" width="40" height="20" as="geometry"/></mxCell><mxCell id="28" style="edgeStyle=orthogonalEdgeStyle;rounded=0;orthogonalLoop=1;jettySize=auto;html=1;entryX=0.341;entryY=-0.01;entryDx=0;entryDy=0;entryPerimeter=0;" edge="1" parent="1" source="1knooG6uAV0iX2cmZe7T-6" target="10"><mxGeometry relative="1" as="geometry"/></mxCell><mxCell id="1knooG6uAV0iX2cmZe7T-6" value="" style="whiteSpace=wrap;html=1;aspect=fixed;" parent="1" vertex="1"><mxGeometry x="380" y="70" width="170" height="170" as="geometry"/></mxCell><mxCell id="1knooG6uAV0iX2cmZe7T-9" value="&lt;div&gt;id&lt;/div&gt;" style="text;html=1;strokeColor=none;fillColor=none;align=center;verticalAlign=middle;whiteSpace=wrap;rounded=0;" parent="1" vertex="1"><mxGeometry x="50" y="80" width="40" height="20" as="geometry"/></mxCell><mxCell id="1knooG6uAV0iX2cmZe7T-10" value="login" style="text;html=1;strokeColor=none;fillColor=none;align=center;verticalAlign=middle;whiteSpace=wrap;rounded=0;" parent="1" vertex="1"><mxGeometry x="50" y="110" width="40" height="20" as="geometry"/></mxCell><mxCell id="1knooG6uAV0iX2cmZe7T-11" value="&lt;div&gt;password&lt;/div&gt;" style="text;html=1;strokeColor=none;fillColor=none;align=center;verticalAlign=middle;whiteSpace=wrap;rounded=0;" parent="1" vertex="1"><mxGeometry x="50" y="145" width="40" height="20" as="geometry"/></mxCell><mxCell id="1knooG6uAV0iX2cmZe7T-13" value="id" style="text;html=1;strokeColor=none;fillColor=none;align=center;verticalAlign=middle;whiteSpace=wrap;rounded=0;" parent="1" vertex="1"><mxGeometry x="390" y="80" width="40" height="20" as="geometry"/></mxCell><mxCell id="1knooG6uAV0iX2cmZe7T-14" value="version_id" style="text;html=1;strokeColor=none;fillColor=none;align=center;verticalAlign=middle;whiteSpace=wrap;rounded=0;" parent="1" vertex="1"><mxGeometry x="390" y="155" width="40" height="20" as="geometry"/></mxCell><mxCell id="1knooG6uAV0iX2cmZe7T-17" value="priority" style="text;html=1;strokeColor=none;fillColor=none;align=center;verticalAlign=middle;whiteSpace=wrap;rounded=0;" parent="1" vertex="1"><mxGeometry x="390" y="135" width="40" height="20" as="geometry"/></mxCell><mxCell id="1knooG6uAV0iX2cmZe7T-18" value="&lt;div&gt;catalog&lt;/div&gt;&lt;div&gt;_id&lt;/div&gt;" style="text;html=1;strokeColor=none;fillColor=none;align=center;verticalAlign=middle;whiteSpace=wrap;rounded=0;" parent="1" vertex="1"><mxGeometry x="390" y="190" width="40" height="20" as="geometry"/></mxCell><mxCell id="1knooG6uAV0iX2cmZe7T-20" value="" style="rounded=0;whiteSpace=wrap;html=1;" parent="1" vertex="1"><mxGeometry x="650" y="70" width="170" height="170" as="geometry"/></mxCell><mxCell id="1knooG6uAV0iX2cmZe7T-21" value="Catalog" style="text;html=1;strokeColor=none;fillColor=none;align=center;verticalAlign=middle;whiteSpace=wrap;rounded=0;" parent="1" vertex="1"><mxGeometry x="650" y="50" width="40" height="20" as="geometry"/></mxCell><mxCell id="1knooG6uAV0iX2cmZe7T-25" value="id" style="text;html=1;strokeColor=none;fillColor=none;align=center;verticalAlign=middle;whiteSpace=wrap;rounded=0;" parent="1" vertex="1"><mxGeometry x="650" y="80" width="40" height="20" as="geometry"/></mxCell><mxCell id="1knooG6uAV0iX2cmZe7T-26" value="name" style="text;html=1;strokeColor=none;fillColor=none;align=center;verticalAlign=middle;whiteSpace=wrap;rounded=0;" parent="1" vertex="1"><mxGeometry x="660" y="110" width="40" height="20" as="geometry"/></mxCell><mxCell id="1knooG6uAV0iX2cmZe7T-30" value="&lt;div&gt;Document&lt;/div&gt;" style="text;html=1;strokeColor=none;fillColor=none;align=center;verticalAlign=middle;whiteSpace=wrap;rounded=0;" parent="1" vertex="1"><mxGeometry x="390" y="50" width="40" height="20" as="geometry"/></mxCell><mxCell id="1knooG6uAV0iX2cmZe7T-33" value="" style="endArrow=classic;html=1;exitX=1;exitY=0.118;exitDx=0;exitDy=0;exitPerimeter=0;" parent="1" source="1knooG6uAV0iX2cmZe7T-1" edge="1"><mxGeometry width="50" height="50" relative="1" as="geometry"><mxPoint x="320" y="130" as="sourcePoint"/><mxPoint x="370" y="90" as="targetPoint"/></mxGeometry></mxCell><mxCell id="1knooG6uAV0iX2cmZe7T-37" value="" style="endArrow=classic;html=1;exitX=1.012;exitY=0.135;exitDx=0;exitDy=0;exitPerimeter=0;entryX=0;entryY=0.5;entryDx=0;entryDy=0;" parent="1" source="1knooG6uAV0iX2cmZe7T-6" target="1knooG6uAV0iX2cmZe7T-25" edge="1"><mxGeometry width="50" height="50" relative="1" as="geometry"><mxPoint x="550" y="130" as="sourcePoint"/><mxPoint x="640" y="90" as="targetPoint"/></mxGeometry></mxCell><mxCell id="1knooG6uAV0iX2cmZe7T-38" value="&lt;div&gt;document_id&lt;/div&gt;" style="text;html=1;strokeColor=none;fillColor=none;align=center;verticalAlign=middle;whiteSpace=wrap;rounded=0;" parent="1" vertex="1"><mxGeometry x="60" y="180" width="40" height="20" as="geometry"/></mxCell><mxCell id="2" value="name" style="text;html=1;strokeColor=none;fillColor=none;align=center;verticalAlign=middle;whiteSpace=wrap;rounded=0;" vertex="1" parent="1"><mxGeometry x="390" y="110" width="40" height="20" as="geometry"/></mxCell><mxCell id="5" value="typeOfView" style="text;html=1;strokeColor=none;fillColor=none;align=center;verticalAlign=middle;whiteSpace=wrap;rounded=0;" vertex="1" parent="1"><mxGeometry x="670" y="145" width="40" height="20" as="geometry"/></mxCell><mxCell id="10" value="" style="rounded=0;whiteSpace=wrap;html=1;" vertex="1" parent="1"><mxGeometry x="405" y="310" width="185" height="100" as="geometry"/></mxCell><mxCell id="11" value="version" style="text;html=1;strokeColor=none;fillColor=none;align=center;verticalAlign=middle;whiteSpace=wrap;rounded=0;" vertex="1" parent="1"><mxGeometry x="410" y="290" width="40" height="20" as="geometry"/></mxCell><mxCell id="12" value="id" style="text;html=1;strokeColor=none;fillColor=none;align=center;verticalAlign=middle;whiteSpace=wrap;rounded=0;" vertex="1" parent="1"><mxGeometry x="410" y="320" width="40" height="20" as="geometry"/></mxCell><mxCell id="13" value="document_id" style="text;html=1;strokeColor=none;fillColor=none;align=center;verticalAlign=middle;whiteSpace=wrap;rounded=0;" vertex="1" parent="1"><mxGeometry x="420" y="350" width="40" height="20" as="geometry"/></mxCell><mxCell id="38" style="edgeStyle=orthogonalEdgeStyle;rounded=0;orthogonalLoop=1;jettySize=auto;html=1;entryX=0.683;entryY=0;entryDx=0;entryDy=0;entryPerimeter=0;" edge="1" parent="1" source="14" target="34"><mxGeometry relative="1" as="geometry"/></mxCell><mxCell id="14" value="" style="rounded=1;whiteSpace=wrap;html=1;" vertex="1" parent="1"><mxGeometry x="100" y="400" width="180" height="90" as="geometry"/></mxCell><mxCell id="15" value="Administrator" style="text;html=1;strokeColor=none;fillColor=none;align=center;verticalAlign=middle;whiteSpace=wrap;rounded=0;" vertex="1" parent="1"><mxGeometry x="125" y="380" width="40" height="20" as="geometry"/></mxCell><mxCell id="18" value="id" style="text;html=1;strokeColor=none;fillColor=none;align=center;verticalAlign=middle;whiteSpace=wrap;rounded=0;" vertex="1" parent="1"><mxGeometry x="110" y="400" width="40" height="20" as="geometry"/></mxCell><mxCell id="21" value="user_id" style="text;html=1;strokeColor=none;fillColor=none;align=center;verticalAlign=middle;whiteSpace=wrap;rounded=0;" vertex="1" parent="1"><mxGeometry x="120" y="420" width="40" height="20" as="geometry"/></mxCell><mxCell id="26" value="" style="endArrow=classic;html=1;" edge="1" parent="1"><mxGeometry width="50" height="50" relative="1" as="geometry"><mxPoint x="450" y="340" as="sourcePoint"/><mxPoint x="500" y="290" as="targetPoint"/></mxGeometry></mxCell><mxCell id="29" value="Text" style="text;html=1;strokeColor=none;fillColor=none;align=center;verticalAlign=middle;whiteSpace=wrap;rounded=0;" vertex="1" parent="1"><mxGeometry x="460" y="280" width="40" height="20" as="geometry"/></mxCell><mxCell id="30" value="Text" style="text;html=1;strokeColor=none;fillColor=none;align=center;verticalAlign=middle;whiteSpace=wrap;rounded=0;" vertex="1" parent="1"><mxGeometry x="460" y="280" width="40" height="20" as="geometry"/></mxCell><mxCell id="32" value="moderator_id" style="text;html=1;strokeColor=none;fillColor=none;align=center;verticalAlign=middle;whiteSpace=wrap;rounded=0;" vertex="1" parent="1"><mxGeometry x="120" y="450" width="40" height="20" as="geometry"/></mxCell><mxCell id="34" value="" style="rounded=0;whiteSpace=wrap;html=1;" vertex="1" parent="1"><mxGeometry x="110" y="560" width="120" height="60" as="geometry"/></mxCell><mxCell id="35" value="id" style="text;html=1;strokeColor=none;fillColor=none;align=center;verticalAlign=middle;whiteSpace=wrap;rounded=0;" vertex="1" parent="1"><mxGeometry x="120" y="570" width="40" height="20" as="geometry"/></mxCell><mxCell id="36" value="moderator_id" style="text;html=1;strokeColor=none;fillColor=none;align=center;verticalAlign=middle;whiteSpace=wrap;rounded=0;" vertex="1" parent="1"><mxGeometry x="140" y="600" width="40" height="20" as="geometry"/></mxCell></root></mxGraphModel></diagram></mxfile>